# xmcd
#
# Track frame offsets: 
#        150
#        16906
#        29469
#        40934
#        61663
#        76971
#        91479
#        106774
#        120136
#        135206
#        152744
#        169199
#        184026
#        200579
#
# Disc length: 2876 seconds
#
# Revision: 4
# Processed by: cddbd v1.5.2PL0 Copyright (c) Steve Scherf et al.
# Submitted via: ExactAudioCopyFreeDBPlugin 1.0
#
DISCID=a00b3a0e
DTITLE=Various Artist - Giro Pelo Interior
DYEAR=2004
DGENRE=Country
TTITLE0=Chitãozinho and Xororó - Frete
TTITLE1=Rionegro and Solimões - Na Sola Da Bota
TTITLE2=Tonico and Tinoco - Cana Verde
TTITLE3=Grupo Tradição - Telefone Mudo (Ao Vivo) - Som De Cristal
TTITLE4=João Mineiro and Marciano - Viola Está Chorando
TTITLE5=Billy Currington - I Got A Feelin'
TTITLE6=Roberta Miranda - Cadê Você (Ao Vivo)
TTITLE7=Chitãozinho and Xororó - Rei Do Gado
TTITLE8=Rionegro and Solimões - Temporal De Lágrimas
TTITLE9=Tonico and Tinoco - Cabocla Tereza
TTITLE10=Marlon and Maicon - Você Vai Se Arrepender
TTITLE11=Adalberto and Adriano - Deixa A Chuva Derramar
TTITLE12=Rionegro and Solimões - Clima De Rodeio
TTITLE13=Chitãozinho and Xororó - Festa Do Interior (Part. Esp. Família 
TTITLE13=Lima)
EXTD=YEAR: 2004
EXTT0=
EXTT1=
EXTT2=
EXTT3=
EXTT4=
EXTT5=
EXTT6=
EXTT7=
EXTT8=
EXTT9=
EXTT10=
EXTT11=
EXTT12=
EXTT13=
PLAYORDER=
